<svg xmlns="http://www.w3.org/2000/svg" width="256" height="256" viewBox="0 0 256 256" version="1.1"><path d="M 480.994 254.886 C 475.800 256.566, 472.126 259.066, 467.880 263.811 C 465.122 266.893, 445.465 300.344, 414.797 354.148 C 388.011 401.141, 365.798 440.363, 365.436 441.306 C 364.819 442.913, 367.404 443.006, 406.046 442.761 L 447.314 442.500 458.541 424 C 467.457 409.309, 470.753 404.744, 474.549 401.827 C 483.354 395.063, 491.274 394.794, 499.798 400.969 C 507.978 406.894, 534.217 450.384, 595.445 559.500 C 606.864 579.850, 617.305 598.413, 618.646 600.750 L 621.084 605 664.124 605 L 707.163 605 705.196 601.750 C 704.113 599.962, 659.493 523.575, 606.040 432 C 545.226 327.816, 507.663 264.442, 505.676 262.673 C 498.670 256.438, 487.292 252.849, 480.994 254.886 M 352.240 464.250 C 351.688 464.938, 347.286 472.025, 342.457 480 C 337.629 487.975, 333.024 495.512, 332.224 496.750 L 330.770 499 372.635 498.970 L 414.500 498.940 424 481.783 C 429.225 472.347, 433.650 464.260, 433.833 463.813 C 434.017 463.366, 415.959 463, 393.706 463 C 362.539 463, 353.014 463.287, 352.240 464.250 M 310.107 537.271 C 305.491 545.647, 295.228 563.687, 287.300 577.360 C 279.373 591.033, 273.175 602.508, 273.526 602.860 C 273.877 603.212, 292.240 603.620, 314.332 603.767 L 354.500 604.034 377.750 563.622 C 390.538 541.396, 401 522.938, 401 522.605 C 401 522.272, 382.438 522.010, 359.750 522.021 L 318.500 522.043 310.107 537.271" stroke="none" fill="#0c8cfc" fill-rule="evenodd"/><path d="M 455 159.152 C 395.773 165.329, 339.443 188.460, 292 226.084 C 278.421 236.853, 254.793 260.508, 243.639 274.500 C 207.430 319.920, 185.445 372.031, 177.401 431.500 C 176.116 440.995, 175.642 451.240, 175.642 469.500 C 175.642 487.760, 176.116 498.005, 177.401 507.500 C 185.445 566.969, 207.430 619.080, 243.639 664.500 C 254.793 678.492, 278.421 702.147, 292 712.916 C 340.127 751.083, 396.117 773.853, 456.856 779.959 C 470.118 781.292, 503.749 781.301, 517.144 779.975 C 623.370 769.457, 716.722 705.792, 764.910 611 C 781.455 578.453, 791.361 546.319, 796.660 508 C 799.076 490.528, 799.076 448.472, 796.660 431 C 791.361 392.681, 781.455 360.547, 764.910 328 C 716.722 233.208, 623.370 169.543, 517.144 159.025 C 504.903 157.813, 467.099 157.890, 455 159.152 M 474 188.665 C 404.510 192.391, 341.040 219.893, 292.110 267.478 C 267.629 291.287, 249.295 316.338, 235.011 345.500 C 225.506 364.905, 220.052 379.613, 214.945 399.607 C 208.261 425.778, 206.617 439.580, 206.617 469.500 C 206.617 499.420, 208.261 513.222, 214.945 539.393 C 234.916 617.588, 288.789 684.429, 361 720.609 C 429.803 755.082, 509.508 759.988, 581.563 734.184 C 672.178 701.735, 740.576 624.392, 761.379 530.849 C 766.356 508.472, 767.450 497.414, 767.450 469.500 C 767.450 434.906, 764.384 414.095, 754.929 384.520 C 719.456 273.561, 621.191 196.856, 504.500 189.036 C 490.072 188.069, 486.026 188.020, 474 188.665 M 341.420 478.750 C 335.500 488.512, 330.007 497.512, 329.213 498.750 L 327.770 501 371.311 501 L 414.853 501 421.772 488.750 C 425.577 482.012, 430.601 473.012, 432.936 468.750 L 437.181 461 394.682 461 L 352.184 461 341.420 478.750 M 352.240 464.250 C 351.688 464.938, 347.286 472.025, 342.457 480 C 337.629 487.975, 333.024 495.512, 332.224 496.750 L 330.770 499 372.635 498.970 L 414.500 498.940 424 481.783 C 429.225 472.347, 433.650 464.260, 433.833 463.813 C 434.017 463.366, 415.959 463, 393.706 463 C 362.539 463, 353.014 463.287, 352.240 464.250 M 315.108 524.750 C 312.006 531.186, 300.471 551.645, 283.759 580.353 C 276.122 593.473, 270.014 604.340, 270.187 604.503 C 270.359 604.665, 289.571 604.956, 312.880 605.149 L 355.260 605.500 379.587 563.500 C 392.967 540.400, 403.934 521.163, 403.957 520.750 C 403.981 520.337, 384.515 520, 360.699 520 L 317.399 520 315.108 524.750 M 310.107 537.271 C 305.491 545.647, 295.228 563.687, 287.300 577.360 C 279.373 591.033, 273.175 602.508, 273.526 602.860 C 273.877 603.212, 292.240 603.620, 314.332 603.767 L 354.500 604.034 377.750 563.622 C 390.538 541.396, 401 522.938, 401 522.605 C 401 522.272, 382.438 522.010, 359.750 522.021 L 318.500 522.043 310.107 537.271" stroke="none" fill="#048cfc" fill-rule="evenodd"/></svg>
