<svg xmlns="http://www.w3.org/2000/svg" width="1000" height="336" viewBox="0 0 1000 336" version="1.1"><path d="M 170.823 64.719 C 169.351 65.723, 167.298 67.659, 166.260 69.022 C 164.231 71.686, 117.442 153.684, 116.398 156.406 C 115.827 157.893, 117.664 158.017, 136.600 157.771 L 157.430 157.500 163.310 148 C 169.929 137.306, 172.867 134.600, 177.860 134.600 C 180.692 134.600, 182.052 135.419, 185.407 139.143 C 189.470 143.653, 205.944 171.359, 230.808 215.500 L 243.764 238.500 265.382 238.770 C 277.272 238.918, 286.993 238.693, 286.985 238.270 C 286.977 237.846, 264.753 199.485, 237.598 153.023 C 203.599 94.849, 187.260 67.800, 185.122 66.151 C 180.977 62.955, 174.380 62.294, 170.823 64.719 M 657.250 132.732 L 653 133.115 653 145.629 C 653 156.652, 652.824 157.967, 651.527 156.669 C 650.716 155.859, 648.471 154.218, 646.538 153.023 C 642.276 150.389, 634.344 150.407, 629 153.061 C 625.848 154.627, 620.960 159.928, 620.296 162.500 C 620.155 163.050, 619.418 165.747, 618.660 168.494 C 613.488 187.234, 624.104 204.445, 640 203.088 C 643.994 202.747, 648.217 200.783, 651.053 197.947 C 652.982 196.018, 653 196.027, 653 199 C 653 201.889, 653.167 202, 657.500 202 L 662 202 662 167 C 662 147.750, 661.888 132.079, 661.750 132.175 C 661.612 132.271, 659.587 132.522, 657.250 132.732 M 884 138 L 884 143.514 888.500 143.157 L 893 142.799 893 138 L 893 133.201 888.500 132.843 L 884 132.486 884 138 M 771 167.500 L 771 202 774.916 202 L 778.831 202 779.171 185.250 C 779.540 167.098, 780.335 163.976, 785.442 160.630 C 791.250 156.824, 799.625 158.439, 802.454 163.911 C 803.327 165.598, 804.031 167.209, 804.020 167.490 C 804.009 167.770, 804 175.650, 804 185 L 804 202 808.607 202 L 813.215 202 812.704 183.750 C 812.134 163.358, 812.162 163.573, 809.461 158.558 C 804.482 149.311, 788.841 148.458, 781.620 157.040 L 779 160.153 779 146.577 L 779 133 775 133 L 771 133 771 167.500 M 726.934 135.750 C 718.766 137.769, 712.249 143.108, 708.153 151.136 C 705.243 156.841, 704.760 158.865, 704.447 166.667 C 703.882 180.744, 707.938 190.959, 716.548 197.142 C 721.647 200.804, 721.036 200.576, 730.500 202.335 C 738.372 203.799, 746.224 202.842, 753.750 199.501 C 757.905 197.657, 758 197.507, 758 192.772 C 758 188.072, 757.934 187.964, 755.750 189.093 C 754.513 189.733, 752.825 190.812, 752 191.490 C 749.186 193.804, 741.504 195.710, 735.980 195.466 C 720.519 194.781, 713.077 184.678, 714.286 166.014 C 714.963 155.569, 718.005 149.110, 723.881 145.643 C 728.459 142.942, 730.175 142.565, 738 142.540 C 744.544 142.519, 749.123 144.034, 755.250 148.246 L 758 150.136 758 145.790 C 758 141.134, 756.796 139.527, 751.545 137.178 C 745.638 134.535, 734.472 133.888, 726.934 135.750 M 363.113 140.250 C 362.114 142.588, 360.263 147.425, 359 151 C 357.737 154.575, 355.830 159.525, 354.762 162 C 353.694 164.475, 352.680 167.193, 352.508 168.039 C 352.336 168.886, 350.852 172.936, 349.208 177.039 C 347.565 181.143, 344.643 188.438, 342.716 193.250 L 339.210 202 344.497 202 C 349.949 202, 350.174 201.806, 351.446 196 C 351.507 195.725, 352.420 193.137, 353.476 190.250 L 355.395 185 370.076 185 L 384.757 185 385.778 187.750 C 386.340 189.262, 387.797 193.088, 389.016 196.250 L 391.232 202 396.061 202 L 400.890 202 398.568 196.750 C 397.291 193.863, 396.195 191.050, 396.133 190.500 C 396.070 189.950, 394.170 184.775, 391.910 179 C 389.650 173.225, 386.535 165.125, 384.988 161 C 383.441 156.875, 380.673 149.564, 378.838 144.754 L 375.500 136.007 370.214 136.004 C 364.947 136, 364.923 136.014, 363.113 140.250 M 365.691 156.755 C 363.597 162.665, 361.017 169.637, 359.958 172.250 L 358.033 177 369.972 177 L 381.911 177 380.439 172.750 C 379.629 170.412, 378.676 167.825, 378.320 167 C 377.964 166.175, 377.596 165.275, 377.503 165 C 377.409 164.725, 376.875 163.375, 376.316 162 C 375.757 160.625, 374.224 156.463, 372.909 152.750 C 371.594 149.037, 370.289 146.002, 370.009 146.005 C 369.729 146.008, 367.786 150.846, 365.691 156.755 M 419.500 151.591 C 418.400 151.859, 416.570 152.273, 415.434 152.512 C 409.913 153.671, 405.491 161.118, 406.465 167.613 C 407.560 174.914, 413.652 178.896, 427.637 181.451 C 433.185 182.465, 437.156 187.971, 435.105 191.804 C 432.385 196.886, 418.788 197.249, 407.750 192.534 C 406.251 191.893, 406 192.358, 406 195.772 C 406 199.197, 406.386 199.905, 408.750 200.812 C 413.657 202.693, 415.530 203.017, 422.067 203.115 C 430.855 203.247, 436.718 201.482, 440.690 197.510 C 443.644 194.556, 444 193.601, 444 188.635 C 444 183.910, 443.559 182.567, 441.078 179.742 C 438.453 176.752, 430.117 173, 426.097 173 C 425.423 173, 422.650 172.045, 419.935 170.877 C 415.445 168.945, 415 168.456, 415 165.448 C 415 162.192, 417.016 159.123, 419.321 158.871 C 428.560 157.859, 437.760 158.882, 440.750 161.253 C 441.708 162.013, 442 161.290, 442 158.158 C 442 154.993, 441.512 153.809, 439.840 152.915 C 437.579 151.704, 422.949 150.753, 419.500 151.591 M 471 151.669 C 461.182 155.011, 455.854 160.921, 454.345 170.145 C 451.897 185.103, 456.657 196.118, 467.938 201.601 C 472.415 203.777, 484.159 203.820, 489.250 201.679 C 492.707 200.225, 493 199.786, 493 196.049 L 493 191.996 489.265 193.998 C 485.131 196.214, 476.918 196.680, 472.385 194.956 C 464.732 192.047, 461.362 183.118, 463.327 170.957 C 464.115 166.074, 467.188 161.988, 471.908 159.548 C 475.417 157.733, 484.717 158.213, 489.179 160.440 C 490.900 161.298, 492.489 162, 492.711 162 C 492.933 162, 492.977 160.125, 492.807 157.834 C 492.531 154.085, 492.149 153.541, 489 152.410 C 485.533 151.164, 473.890 150.685, 471 151.669 M 518.566 152.550 C 507.656 156.634, 502.170 168.637, 504.327 183.707 C 505.436 191.456, 511.723 199.083, 518.991 201.497 C 526.060 203.845, 538.343 203.534, 545.250 200.833 C 547.580 199.921, 548 199.176, 548 195.948 C 548 192.260, 547.913 192.166, 545.250 192.963 C 543.737 193.416, 541.375 194.215, 540 194.739 C 536.420 196.103, 525.939 196.308, 522.701 195.076 C 517.597 193.136, 513.899 188.393, 513.274 182.988 L 512.814 179 531.544 179 L 550.274 179 549.769 172.705 C 549.006 163.209, 545.033 156.575, 538 153.053 C 533.588 150.844, 523.801 150.590, 518.566 152.550 M 580 152.300 C 578.625 152.940, 576.905 154.035, 576.179 154.732 C 575.452 155.429, 574.508 156, 574.081 156 C 573.655 156, 572.817 157.012, 572.220 158.250 C 571.252 160.257, 571.128 160.042, 571.068 156.250 L 571 152 567 152 L 563 152 563 177 L 563 202 567 202 L 571 202 571.114 187.250 C 571.257 168.797, 571.400 167.651, 574.034 163.952 C 578.223 158.069, 588.136 156.681, 592.782 161.328 C 595.819 164.364, 595.834 164.474, 595.923 184.750 L 596 202 600.566 202 L 605.133 202 604.913 185.293 C 604.616 162.771, 603.237 157.712, 596.027 152.714 C 593.146 150.717, 583.911 150.478, 580 152.300 M 836 152.207 C 830.162 153.494, 829 154.543, 829 158.531 L 829 161.817 835.250 159.885 C 841.838 157.848, 849.151 157.659, 852.500 159.438 C 856.723 161.681, 859 164.391, 859 167.174 C 859 169.905, 858.824 170.003, 853.750 170.088 C 838.583 170.342, 831.679 172.547, 828.144 178.266 C 823.686 185.480, 826.256 197.861, 832.876 201.063 C 840.688 204.841, 851.764 203.390, 856.858 197.922 L 859 195.623 859 198.811 C 859 201.928, 859.102 202, 863.541 202 L 868.083 202 867.952 184.933 C 867.880 175.546, 867.424 166.479, 866.938 164.784 C 863.666 153.375, 852.073 148.662, 836 152.207 M 925.134 153.115 C 923.283 154.201, 921.033 155.825, 920.134 156.724 C 918.622 158.237, 918.462 158.141, 917.995 155.429 C 917.541 152.794, 917.065 152.469, 913.245 152.193 L 909 151.885 909 176.943 L 909 202 913.417 202 L 917.835 202 918.167 184.703 C 918.446 170.237, 918.789 166.965, 920.264 164.716 C 923.461 159.844, 927.739 158.209, 935.668 158.830 C 937.821 158.999, 941.839 164.243, 942.514 167.765 C 942.697 168.719, 942.881 176.813, 942.923 185.750 L 943 202 947 202 L 951 202 951.141 186.750 C 951.307 168.878, 951.270 167.528, 950.502 163.279 C 949.758 159.161, 945.516 154.114, 941.329 152.364 C 936.668 150.417, 929.141 150.766, 925.134 153.115 M 884 177 L 884 202 888.500 202 L 893 202 893 177 L 893 152 888.500 152 L 884 152 884 177 M 521.490 159.462 C 517.236 161.288, 514.272 164.905, 513.470 169.250 L 512.777 173 526.805 173 C 537.104 173, 540.944 172.669, 541.248 171.756 C 541.998 169.505, 539.738 164.123, 536.902 161.406 C 533.646 158.287, 526.368 157.369, 521.490 159.462 M 634.486 159.458 C 629.483 161.596, 626.899 166.219, 626.295 174.114 C 625.294 187.183, 629.533 194.742, 638.423 195.744 C 647.553 196.773, 653.234 189.707, 653.231 177.329 C 653.227 166.151, 648.920 159.321, 641.403 158.573 C 639.241 158.358, 636.128 158.756, 634.486 159.458 M 105.946 174.250 C 103.591 178.238, 101.013 182.512, 100.217 183.750 L 98.770 186 119.635 185.997 L 140.500 185.994 145.250 177.495 C 147.863 172.821, 150 168.547, 150 167.998 C 150 167.367, 142.682 167, 130.114 167 L 110.228 167 105.946 174.250 M 841.527 177.863 C 837.899 178.542, 835.207 181.085, 834.580 184.425 C 833.867 188.227, 835.283 192.732, 837.789 194.637 C 840.161 196.439, 848.479 196.321, 852.128 194.434 C 855.737 192.568, 858.947 186.135, 858.978 180.706 L 859 176.913 851.235 177.206 C 846.964 177.368, 842.595 177.664, 841.527 177.863 M 81.824 216.719 C 75.596 227.564, 70.350 236.789, 70.167 237.219 C 69.983 237.648, 79.052 238, 90.319 238 L 110.804 238 122.402 217.913 C 128.781 206.866, 134 197.641, 134 197.413 C 134 197.186, 124.808 197, 113.574 197 L 93.148 197 81.824 216.719" stroke="none" fill="#0c8cfc" fill-rule="evenodd"/><path d="M 152.500 16.583 C 88.826 26.414, 37.750 75.539, 23.814 140.352 C 20.859 154.096, 20.584 184.854, 23.294 198.500 C 29.899 231.759, 43.507 257.479, 66.985 281.081 C 89.468 303.682, 114.640 317.392, 145.923 324.076 C 158.201 326.699, 183.975 327.721, 196.500 326.082 C 286.995 314.235, 348.324 228.764, 330.380 139.500 C 317.821 77.024, 266.777 27.818, 203.261 16.959 C 189.590 14.622, 166.319 14.450, 152.500 16.583 M 164.825 31.014 C 130.487 34.215, 98.740 49.602, 75.231 74.438 C 57.412 93.262, 45.072 116.869, 39.378 143.027 C 36.767 155.021, 36.732 185.906, 39.316 198 C 51.900 256.909, 97.700 300.691, 156 309.545 C 231.518 321.015, 302.345 269.777, 315.536 194.132 C 317.494 182.906, 317.434 158.936, 315.418 146.926 C 308.338 104.749, 280.383 66.532, 242.039 46.609 C 218.040 34.141, 190.643 28.607, 164.825 31.014 M 770.455 133.257 C 770.190 133.948, 770.098 149.810, 770.250 168.507 L 770.528 202.500 770.764 167.807 L 771 133.115 775.250 132.732 L 779.500 132.349 775.219 132.175 C 772.563 132.066, 770.754 132.477, 770.455 133.257 M 364.643 135.768 C 364.382 136.191, 366.043 136.392, 368.334 136.216 C 375.063 135.696, 375.882 135.241, 370.309 135.116 C 367.454 135.052, 364.904 135.346, 364.643 135.768 M 109.252 167.250 C 107.119 169.935, 98 185.211, 98 186.099 C 98 186.665, 106.610 186.932, 119.654 186.770 L 141.308 186.500 146.654 177.005 C 149.594 171.783, 152 167.171, 152 166.755 C 152 166.340, 142.605 166, 131.122 166 C 115.617 166, 109.989 166.322, 109.252 167.250 M 105.946 174.250 C 103.591 178.238, 101.013 182.512, 100.217 183.750 L 98.770 186 119.635 185.997 L 140.500 185.994 145.250 177.495 C 147.863 172.821, 150 168.547, 150 167.998 C 150 167.367, 142.682 167, 130.114 167 L 110.228 167 105.946 174.250 M 519.750 172.743 C 523.737 172.932, 530.263 172.932, 534.250 172.743 C 538.237 172.553, 534.975 172.397, 527 172.397 C 519.025 172.397, 515.763 172.553, 519.750 172.743 M 571.402 187 C 571.402 195.525, 571.556 199.012, 571.743 194.750 C 571.931 190.488, 571.931 183.512, 571.743 179.250 C 571.556 174.988, 571.402 178.475, 571.402 187 M 951.402 187 C 951.402 195.525, 951.556 199.012, 951.743 194.750 C 951.931 190.488, 951.931 183.512, 951.743 179.250 C 951.556 174.988, 951.402 178.475, 951.402 187 M 89.895 200.250 C 88.714 202.588, 83.530 211.791, 78.374 220.702 C 73.218 229.613, 69 237.375, 69 237.952 C 69 238.650, 76.091 238.996, 90.250 238.987 L 111.500 238.975 121.959 220.737 C 127.712 210.707, 133.269 201.037, 134.308 199.250 L 136.198 196 114.119 196 L 92.041 196 89.895 200.250 M 81.824 216.719 C 75.596 227.564, 70.350 236.789, 70.167 237.219 C 69.983 237.648, 79.052 238, 90.319 238 L 110.804 238 122.402 217.913 C 128.781 206.866, 134 197.641, 134 197.413 C 134 197.186, 124.808 197, 113.574 197 L 93.148 197 81.824 216.719" stroke="none" fill="#048cfc" fill-rule="evenodd"/></svg>