<svg xmlns="http://www.w3.org/2000/svg" width="256" height="256" viewBox="0 0 256 256" version="1.1"><path d="M 116.074 30.862 C 115.357 32.201, 115.478 33.253, 116.507 34.612 C 117.568 36.014, 117.945 39.783, 117.968 49.250 L 118 62 160.822 62 C 209.940 62, 210.120 62.025, 218.048 69.952 C 230.890 82.794, 227.677 103.593, 211.500 112.338 C 207.834 114.320, 205.624 114.542, 185 115 L 162.500 115.500 162.229 120.500 C 162.080 123.250, 161.473 126.453, 160.880 127.619 C 159.235 130.854, 160.145 133.500, 162.905 133.500 C 166.352 133.500, 167.879 130.629, 165.708 128.230 C 164.684 127.098, 164 124.706, 164 122.257 L 164 118.172 185.250 117.836 C 206.277 117.504, 206.561 117.470, 212.307 114.649 C 230.307 105.810, 233.904 81.837, 219.336 67.805 C 217.226 65.772, 213.475 63.195, 211 62.077 C 206.701 60.135, 204.564 60.043, 163.250 60.022 L 120 60 120 48.429 C 120 39.476, 120.340 36.518, 121.500 35.357 C 123.401 33.456, 123.387 32.530, 121.429 30.571 C 119.333 28.476, 117.292 28.587, 116.074 30.862 M 126.336 36.567 C 126.005 37.430, 126.236 39.117, 126.850 40.317 C 127.464 41.518, 128.086 45.200, 128.233 48.500 L 128.500 54.500 169 55 L 209.500 55.500 214.500 58.150 C 235.712 69.394, 239.815 96.566, 222.809 113.174 C 215.570 120.243, 209.534 122.168, 192.721 122.767 C 180.657 123.197, 178.706 123.044, 177.043 121.539 C 174.245 119.007, 170.790 120.363, 171.192 123.836 C 171.431 125.904, 172.115 126.571, 174.250 126.816 C 175.762 126.990, 177 126.692, 177 126.154 C 177 125.572, 183.386 125.039, 192.776 124.838 C 208.244 124.507, 208.681 124.436, 215.149 121.250 C 222.970 117.397, 229.117 111.116, 232.840 103.175 C 236.447 95.480, 236.613 82.117, 233.194 74.580 C 228.383 63.974, 219.513 56.410, 208.530 53.550 C 203.692 52.290, 195.888 52, 166.790 52 L 131 52 131 46.986 C 131 44.229, 131.521 41.139, 132.158 40.119 C 132.795 39.099, 133.034 37.530, 132.689 36.632 C 131.886 34.541, 127.132 34.492, 126.336 36.567 M 103.488 50.895 C 102.918 51.456, 91.091 52.025, 75.500 52.241 C 53.139 52.550, 47.727 52.907, 44 54.318 C 34.281 57.997, 24.577 68.047, 21.774 77.337 C 21.083 79.627, 20.514 85.110, 20.509 89.523 C 20.501 96.564, 20.898 98.353, 23.750 104.145 C 30.083 117.007, 41.191 124.104, 56 124.753 C 60.675 124.957, 65.453 125.591, 66.619 126.161 C 69.883 127.758, 72.500 126.839, 72.500 124.095 C 72.500 120.541, 69.619 119.130, 67.071 121.436 C 65.322 123.018, 63.896 123.209, 57.262 122.746 C 35.954 121.259, 22.850 108.098, 22.860 88.195 C 22.866 75.601, 29.867 64.317, 41.500 58.150 L 46.500 55.500 73.953 55.190 C 93.831 54.965, 102.022 55.209, 103.636 56.073 C 106.902 57.821, 109.198 56.572, 108.817 53.256 C 108.485 50.367, 105.410 49.005, 103.488 50.895 M 57.571 58.571 C 55.685 60.457, 55.619 61.219, 57.200 62.800 C 58.651 64.251, 63 64.401, 63 63 C 63 62.364, 70.833 62, 84.500 62 L 106 62 106 65.456 L 106 68.912 155.250 69.206 L 204.500 69.500 208.661 71.884 C 213.334 74.562, 216.097 77.882, 217.828 82.899 C 220.947 91.944, 216.462 102.068, 207.541 106.120 C 203.930 107.761, 200.495 107.958, 175.279 107.978 L 147.059 108 146.779 153.329 L 146.500 198.658 143.692 202.338 C 135.866 212.596, 120.135 212.596, 112.308 202.339 L 109.500 198.659 109 157.079 L 108.500 115.500 98 114.911 C 92.225 114.587, 86.569 113.993, 85.430 113.591 C 82.804 112.665, 80.585 115.118, 81.485 117.952 C 82.171 120.115, 86.360 120.845, 87.500 119 C 87.840 118.450, 92.122 118, 97.015 118 L 105.913 118 106.206 157.250 L 106.500 196.500 109 200.953 C 115.670 212.834, 130.143 216.343, 140.364 208.557 C 142.639 206.824, 145.625 203.403, 147 200.953 L 149.500 196.500 149.790 153.250 L 150.080 110 177.580 110 C 202.677 110, 205.404 109.833, 208.790 108.092 C 222.886 100.841, 225.294 81.987, 213.379 72.159 C 211.246 70.399, 207.925 68.521, 206 67.985 C 203.960 67.417, 182.999 67.009, 155.750 67.006 L 109 67 109 63.500 L 109 60 86.750 59.968 C 68.771 59.942, 64.127 59.655, 62.559 58.468 C 60.112 56.618, 59.513 56.630, 57.571 58.571 M 75.500 66 C 75.151 66.565, 70.233 67.002, 64.191 67.006 C 51.442 67.012, 47.152 68.050, 42.316 72.296 C 30.739 82.460, 33.263 100.917, 47.210 108.092 C 50.570 109.820, 53.284 110, 75.960 110 L 101 110 101 93.500 L 101 77 77.868 77 C 56.245 77, 54.518 77.135, 51.398 79.063 C 48.200 81.039, 46.021 85.562, 46.006 90.250 C 46.003 91.213, 45.519 92, 44.930 92 C 43.332 92, 44.256 96.143, 46.114 97.307 C 47.002 97.863, 48.464 98.036, 49.364 97.691 C 51.149 97.005, 51.613 92.497, 50 91.500 C 48.163 90.365, 48.963 85.154, 51.412 82.306 L 53.823 79.500 76.412 79.197 L 99 78.894 99 93.447 L 99 108 75.750 107.978 C 55.358 107.959, 52.003 107.730, 48.459 106.120 C 34.525 99.791, 33.360 80.668, 46.412 72.562 C 50.762 69.860, 52.062 69.588, 62.520 69.188 C 72.206 68.817, 74.144 69.001, 75.569 70.426 C 76.490 71.347, 77.927 71.965, 78.764 71.800 C 80.869 71.385, 82.446 68.604, 81.691 66.636 C 81.005 64.851, 76.497 64.387, 75.500 66 M 186.500 76 C 186.105 76.640, 171.490 77, 145.941 77 L 106 77 106 93.500 L 106 110 110.500 110 L 115 110 115 146.500 C 115 171.682, 114.669 183, 113.934 183 C 113.347 183, 113.010 184.238, 113.184 185.750 C 113.600 189.367, 118.442 190.333, 119.497 187.010 C 119.864 185.852, 119.657 184.292, 119.036 183.544 C 118.242 182.587, 117.927 171.910, 117.974 147.596 C 118.010 128.573, 117.757 111.881, 117.412 110.504 C 116.876 108.369, 116.210 108, 112.892 108 L 109 108 109 93.500 L 109 79 146.535 79 C 178.464 79, 184.417 79.227, 186.394 80.523 C 190.037 82.910, 193.838 80.348, 192.362 76.500 C 191.716 74.819, 187.455 74.455, 186.500 76 M 173.500 85 C 173.112 85.628, 162.525 86, 145.048 86 C 113.495 86, 116 85.226, 116 94.975 C 116 99.351, 116.391 100.936, 117.582 101.393 C 120.230 102.409, 200.652 102.083, 203.383 101.045 C 207.612 99.437, 209.206 95.956, 208.274 90.362 C 207.563 86.096, 207.140 85.462, 204.818 85.192 C 202.850 84.963, 202 85.424, 201.503 86.990 C 200.769 89.303, 202.448 92, 204.622 92 C 206.321 92, 206.448 96.152, 204.800 97.800 C 203.904 98.696, 192.867 99, 161.300 99 L 119 99 119 94 L 119 89 145.941 89 C 162.823 89, 173.113 89.373, 173.500 90 C 174.412 91.476, 177.577 91.214, 178.960 89.548 C 180.782 87.353, 179.290 84, 176.492 84 C 175.186 84, 173.840 84.450, 173.500 85 M 58.208 93.750 L 58.500 101.500 75.500 101.500 L 92.500 101.500 92.792 93.750 L 93.084 86 75.500 86 L 57.916 86 58.208 93.750 M 26.238 90.162 C 24.490 91.910, 24.700 93.673, 26.838 95.193 C 27.849 95.912, 28.972 97.694, 29.333 99.154 C 30.558 104.104, 37.520 111.618, 43.669 114.627 C 48.948 117.209, 50.609 117.490, 62.726 117.844 L 76 118.232 76 129.057 C 76 135.195, 75.567 140.150, 75 140.500 C 73.530 141.409, 73.783 144.575, 75.436 145.947 C 78.623 148.592, 82.853 143.253, 79.906 140.306 C 79.305 139.705, 78.835 136.127, 78.862 132.356 C 78.889 128.585, 78.654 123.138, 78.340 120.250 L 77.770 115 64.135 114.978 C 52.595 114.959, 49.809 114.644, 46 112.921 C 37.201 108.943, 31.600 101.615, 31.537 94 C 31.506 90.268, 31.156 89.451, 29.488 89.212 C 28.382 89.053, 26.919 89.481, 26.238 90.162 M 60 93.974 L 60 99 75.555 99 L 91.110 99 90.805 94.250 L 90.500 89.500 75.250 89.224 L 60 88.948 60 93.974 M 123 152.077 L 123 196.154 125.944 199.098 C 128.583 201.737, 129.334 201.975, 133.194 201.398 C 138.599 200.590, 140.906 198.661, 139.374 196.231 C 137.732 193.629, 133.574 193.977, 133.180 196.750 C 132.824 199.258, 129.280 199.880, 127.200 197.800 C 126.304 196.904, 126 185.644, 126 153.300 L 126 110 131 110 L 136 110 136 143.014 C 136 167.587, 135.682 176.536, 134.757 178.017 C 133.244 180.441, 134.774 183.500, 137.500 183.500 C 140.226 183.500, 141.756 180.441, 140.243 178.017 C 139.319 176.538, 139 167.705, 139 143.595 C 139 125.758, 138.727 110.452, 138.393 109.582 C 137.915 108.337, 136.212 108, 130.393 108 L 123 108 123 152.077 M 89.986 125.517 C 88.857 126.877, 88.910 127.578, 90.323 129.970 C 91.735 132.359, 92 135.830, 92 151.904 L 92 171 87.059 171 C 84.341 171, 81.840 170.550, 81.500 170 C 80.591 168.530, 77.425 168.783, 76.053 170.436 C 75.168 171.502, 75.146 172.404, 75.966 173.936 C 77.248 176.331, 80.225 176.639, 81.954 174.556 C 82.748 173.599, 84.365 173.266, 86.741 173.571 C 94.262 174.533, 94 175.308, 94 152.133 C 94 138.565, 94.375 131.025, 95.085 130.315 C 95.681 129.719, 96.019 128.166, 95.835 126.865 C 95.428 123.993, 91.921 123.185, 89.986 125.517 M 97.667 138.667 C 96.620 139.714, 96.888 144, 98 144 C 98.632 144, 99 151.126, 99 163.377 L 99 182.753 88.885 182.928 C 80.744 183.068, 78.417 182.782, 76.960 181.463 C 74.350 179.102, 71.563 179.971, 71.183 183.264 C 70.810 186.499, 73.267 187.939, 76.119 186.158 C 77.244 185.455, 82.499 185, 89.486 185 L 101 185 101 164.500 C 101 153.137, 101.398 144, 101.893 144 C 103.157 144, 104.045 141.280, 103.362 139.500 C 102.783 137.991, 98.909 137.424, 97.667 138.667 M 176 139 C 176 139.603, 171.856 140, 165.569 140 L 155.137 140 154.819 168.750 C 154.512 196.429, 154.414 197.675, 152.192 202.186 C 147.986 210.723, 137.223 218.405, 133.086 215.822 C 130.612 214.276, 127.767 216.368, 128.202 219.412 C 128.563 221.943, 132.889 222.870, 134.444 220.750 C 135.025 219.959, 137.566 218.398, 140.091 217.282 C 146.255 214.558, 152.566 207.776, 155.006 201.255 C 156.814 196.423, 157 193.451, 157 169.462 L 157 143 166.417 143 C 172.662 143, 175.963 143.390, 176.219 144.158 C 176.463 144.889, 177.600 145.066, 179.303 144.639 C 182.181 143.916, 182.901 141.301, 180.800 139.200 C 179.347 137.747, 176 137.607, 176 139 M 160.336 150.567 C 160.005 151.430, 160.277 153.149, 160.940 154.388 C 161.805 156.004, 162.055 162.707, 161.823 178.071 C 161.510 198.827, 161.417 199.677, 158.852 205.148 C 146.183 232.169, 106.975 231.068, 96.407 203.395 C 95.123 200.034, 94.961 198.380, 95.747 196.657 C 97.808 192.132, 92.384 188.545, 90.057 192.893 C 89.297 194.314, 89.482 195.374, 90.799 197.143 C 91.765 198.439, 93.169 201.300, 93.919 203.500 C 96.809 211.976, 103.293 219.211, 112 223.678 C 117.004 226.246, 118.447 226.500, 128 226.500 C 138.061 226.500, 138.764 226.357, 144.821 223.073 C 151.871 219.251, 157.634 213.303, 161.155 206.216 C 163.368 201.763, 163.516 200.247, 163.820 179 C 164.084 160.604, 164.419 156.194, 165.661 154.822 C 167.838 152.417, 166.511 149, 163.401 149 C 162.046 149, 160.667 149.705, 160.336 150.567" stroke="none" fill="#ddca29" fill-rule="evenodd"/><path d="M 114.337 26.477 C 111.297 28.606, 110.605 32.537, 112.604 36.322 C 114.423 39.768, 115.268 53.582, 113.929 58 C 113.371 59.843, 113.149 58.996, 113.086 54.773 C 112.971 47.090, 110.787 45.502, 101.378 46.258 C 97.769 46.547, 94.317 47.283, 93.708 47.892 C 92.961 48.639, 84.994 49, 69.237 49 L 45.874 49 39.187 52.216 C 35.509 53.985, 30.357 57.569, 27.738 60.181 C 25.119 62.792, 22.419 64.719, 21.738 64.464 C 20.123 63.858, 17.659 69.059, 18.950 70.350 C 19.551 70.951, 19.367 72.578, 18.451 74.773 C 16.257 80.022, 16.570 96.093, 19 103 C 20.064 106.025, 20.949 109.524, 20.967 110.775 C 20.988 112.207, 21.848 113.372, 23.291 113.921 C 25.768 114.862, 27.799 116.969, 29.496 120.357 C 30.086 121.535, 31.542 122.514, 32.731 122.530 C 33.920 122.547, 35.255 122.924, 35.697 123.368 C 37.695 125.379, 44.219 127.218, 52.407 128.079 C 57.306 128.595, 61.806 129.399, 62.407 129.867 C 63.008 130.336, 65.487 130.782, 67.916 130.859 C 72.957 131.018, 74.221 131.737, 71.823 133.079 C 70.568 133.781, 70.155 135.478, 70.133 140.007 C 70.106 145.596, 70.350 146.243, 73.706 149.503 C 77.320 153.012, 81.739 154.153, 82.413 151.750 C 82.606 151.063, 83.348 148.560, 84.062 146.190 C 85.196 142.423, 85.148 141.520, 83.680 139.035 C 81.508 135.359, 81.393 125.748, 83.500 124 C 84.781 122.937, 85.015 123.248, 85.106 126.128 C 85.164 127.982, 85.130 130.739, 85.030 132.252 C 84.918 133.962, 85.446 135.234, 86.424 135.609 C 87.764 136.123, 88 138.518, 88 151.607 L 88 167 85.559 167 C 84.216 167, 82.840 166.550, 82.500 166 C 81.276 164.020, 75.430 164.914, 73.053 167.444 C 71.183 169.434, 70.880 170.549, 71.424 173.444 C 71.883 175.894, 71.722 177, 70.906 177 C 68.885 177, 67.065 180.334, 67.032 184.095 C 66.988 189.095, 69.697 191.405, 74.700 190.634 C 76.790 190.311, 80.390 189.767, 82.701 189.423 L 86.902 188.799 85.718 191.936 C 84.671 194.709, 84.837 195.617, 87.150 199.786 C 88.588 202.379, 90.086 205.555, 90.480 206.844 C 91.260 209.402, 96.559 217.609, 98.010 218.506 C 98.506 218.813, 98.665 219.837, 98.362 220.782 C 97.968 222.011, 98.073 222.138, 98.729 221.226 C 99.439 220.242, 100.085 220.443, 101.574 222.110 C 102.633 223.296, 106.875 225.833, 111 227.747 C 117.522 230.774, 119.194 231.156, 123.825 230.678 C 126.753 230.376, 131.703 230.553, 134.825 231.071 C 139.908 231.914, 140.670 231.808, 142.127 230.047 C 143.022 228.967, 145.561 227.359, 147.770 226.475 C 149.980 225.591, 152.963 223.548, 154.401 221.934 C 155.839 220.320, 157.822 219, 158.808 219 C 161.383 219, 163 217.018, 163 213.859 C 163 212.351, 163.450 210.840, 164 210.500 C 164.550 210.160, 165 209.041, 165 208.012 C 165 206.984, 165.774 205.369, 166.719 204.424 C 168.247 202.895, 168.408 200.529, 168.167 183.102 C 167.954 167.681, 168.235 162.233, 169.485 157.558 C 170.359 154.290, 170.797 150.352, 170.458 148.808 C 169.766 145.660, 170.382 145.432, 174 147.500 C 177.353 149.417, 180.028 149.319, 182.812 147.177 C 185.647 144.995, 187.626 137.460, 185.908 135.389 C 184.395 133.567, 178.845 133.620, 174.346 135.500 C 168.752 137.837, 167.795 137.523, 169.797 134.006 C 171.081 131.748, 172.237 131.002, 174.500 130.971 C 176.150 130.948, 178.573 130.334, 179.884 129.608 C 181.466 128.730, 184.492 128.439, 188.884 128.740 C 205.267 129.865, 221.401 125.430, 227.560 118.111 C 229.080 116.305, 231.375 114.428, 232.661 113.939 C 234.351 113.296, 235 112.266, 235 110.225 C 235 108.671, 235.374 106.973, 235.831 106.450 C 237.460 104.589, 239 97.174, 239 91.193 C 239 87.852, 239.450 84.840, 240 84.500 C 241.684 83.459, 241.148 78.182, 239.250 77.120 C 238.233 76.551, 237.448 74.854, 237.375 73.070 C 237.306 71.382, 237.194 69.170, 237.125 68.156 C 236.974 65.926, 232.914 61, 231.227 61 C 230.562 61, 227.939 59.414, 225.400 57.475 C 222.860 55.537, 218.694 52.949, 216.141 51.725 C 211.630 49.562, 210.434 49.492, 173.307 49.216 C 135.880 48.938, 135.100 48.891, 134.467 46.894 C 134.071 45.648, 134.437 44.174, 135.410 43.100 C 137.591 40.689, 137.455 34.722, 135.171 32.655 C 134.165 31.745, 131.690 31, 129.671 31 C 127.139 31, 126 30.552, 126 29.557 C 126 27.556, 122.074 25, 119 25 C 117.595 25, 115.496 25.665, 114.337 26.477 M 116.074 30.862 C 115.357 32.201, 115.478 33.253, 116.507 34.612 C 117.568 36.014, 117.945 39.783, 117.968 49.250 L 118 62 160.822 62 C 209.940 62, 210.120 62.025, 218.048 69.952 C 230.890 82.794, 227.677 103.593, 211.500 112.338 C 207.834 114.320, 205.624 114.542, 185 115 L 162.500 115.500 162.229 120.500 C 162.080 123.250, 161.473 126.453, 160.880 127.619 C 159.235 130.854, 160.145 133.500, 162.905 133.500 C 166.352 133.500, 167.879 130.629, 165.708 128.230 C 164.684 127.098, 164 124.706, 164 122.257 L 164 118.172 185.250 117.836 C 206.277 117.504, 206.561 117.470, 212.307 114.649 C 230.307 105.810, 233.904 81.837, 219.336 67.805 C 217.226 65.772, 213.475 63.195, 211 62.077 C 206.701 60.135, 204.564 60.043, 163.250 60.022 L 120 60 120 48.429 C 120 39.476, 120.340 36.518, 121.500 35.357 C 123.401 33.456, 123.387 32.530, 121.429 30.571 C 119.333 28.476, 117.292 28.587, 116.074 30.862 M 126.336 36.567 C 126.005 37.430, 126.236 39.117, 126.850 40.317 C 127.464 41.518, 128.086 45.200, 128.233 48.500 L 128.500 54.500 169 55 L 209.500 55.500 214.500 58.150 C 235.712 69.394, 239.815 96.566, 222.809 113.174 C 215.570 120.243, 209.534 122.168, 192.721 122.767 C 180.657 123.197, 178.706 123.044, 177.043 121.539 C 174.245 119.007, 170.790 120.363, 171.192 123.836 C 171.431 125.904, 172.115 126.571, 174.250 126.816 C 175.762 126.990, 177 126.692, 177 126.154 C 177 125.572, 183.386 125.039, 192.776 124.838 C 208.244 124.507, 208.681 124.436, 215.149 121.250 C 222.970 117.397, 229.117 111.116, 232.840 103.175 C 236.447 95.480, 236.613 82.117, 233.194 74.580 C 228.383 63.974, 219.513 56.410, 208.530 53.550 C 203.692 52.290, 195.888 52, 166.790 52 L 131 52 131 46.986 C 131 44.229, 131.521 41.139, 132.158 40.119 C 132.795 39.099, 133.034 37.530, 132.689 36.632 C 131.886 34.541, 127.132 34.492, 126.336 36.567 M 103.488 50.895 C 102.918 51.456, 91.091 52.025, 75.500 52.241 C 53.139 52.550, 47.727 52.907, 44 54.318 C 34.281 57.997, 24.577 68.047, 21.774 77.337 C 21.083 79.627, 20.514 85.110, 20.509 89.523 C 20.501 96.564, 20.898 98.353, 23.750 104.145 C 30.083 117.007, 41.191 124.104, 56 124.753 C 60.675 124.957, 65.453 125.591, 66.619 126.161 C 69.883 127.758, 72.500 126.839, 72.500 124.095 C 72.500 120.541, 69.619 119.130, 67.071 121.436 C 65.322 123.018, 63.896 123.209, 57.262 122.746 C 35.954 121.259, 22.850 108.098, 22.860 88.195 C 22.866 75.601, 29.867 64.317, 41.500 58.150 L 46.500 55.500 73.953 55.190 C 93.831 54.965, 102.022 55.209, 103.636 56.073 C 106.902 57.821, 109.198 56.572, 108.817 53.256 C 108.485 50.367, 105.410 49.005, 103.488 50.895 M 123.684 51.750 C 123.446 52.163, 123.612 53.400, 124.055 54.500 C 124.757 56.246, 124.868 56.151, 124.930 53.750 C 124.999 51.037, 124.531 50.286, 123.684 51.750 M 57.571 58.571 C 55.685 60.457, 55.619 61.219, 57.200 62.800 C 58.651 64.251, 63 64.401, 63 63 C 63 62.364, 70.833 62, 84.500 62 L 106 62 106 65.456 L 106 68.912 155.250 69.206 L 204.500 69.500 208.661 71.884 C 213.334 74.562, 216.097 77.882, 217.828 82.899 C 220.947 91.944, 216.462 102.068, 207.541 106.120 C 203.930 107.761, 200.495 107.958, 175.279 107.978 L 147.059 108 146.779 153.329 L 146.500 198.658 143.692 202.338 C 135.866 212.596, 120.135 212.596, 112.308 202.339 L 109.500 198.659 109 157.079 L 108.500 115.500 98 114.911 C 92.225 114.587, 86.569 113.993, 85.430 113.591 C 82.804 112.665, 80.585 115.118, 81.485 117.952 C 82.171 120.115, 86.360 120.845, 87.500 119 C 87.840 118.450, 92.122 118, 97.015 118 L 105.913 118 106.206 157.250 L 106.500 196.500 109 200.953 C 115.670 212.834, 130.143 216.343, 140.364 208.557 C 142.639 206.824, 145.625 203.403, 147 200.953 L 149.500 196.500 149.790 153.250 L 150.080 110 177.580 110 C 202.677 110, 205.404 109.833, 208.790 108.092 C 222.886 100.841, 225.294 81.987, 213.379 72.159 C 211.246 70.399, 207.925 68.521, 206 67.985 C 203.960 67.417, 182.999 67.009, 155.750 67.006 L 109 67 109 63.500 L 109 60 86.750 59.968 C 68.771 59.942, 64.127 59.655, 62.559 58.468 C 60.112 56.618, 59.513 56.630, 57.571 58.571 M 75.500 66 C 75.151 66.565, 70.233 67.002, 64.191 67.006 C 51.442 67.012, 47.152 68.050, 42.316 72.296 C 30.739 82.460, 33.263 100.917, 47.210 108.092 C 50.570 109.820, 53.284 110, 75.960 110 L 101 110 101 93.500 L 101 77 77.868 77 C 56.245 77, 54.518 77.135, 51.398 79.063 C 48.200 81.039, 46.021 85.562, 46.006 90.250 C 46.003 91.213, 45.519 92, 44.930 92 C 43.332 92, 44.256 96.143, 46.114 97.307 C 47.002 97.863, 48.464 98.036, 49.364 97.691 C 51.149 97.005, 51.613 92.497, 50 91.500 C 48.163 90.365, 48.963 85.154, 51.412 82.306 L 53.823 79.500 76.412 79.197 L 99 78.894 99 93.447 L 99 108 75.750 107.978 C 55.358 107.959, 52.003 107.730, 48.459 106.120 C 34.525 99.791, 33.360 80.668, 46.412 72.562 C 50.762 69.860, 52.062 69.588, 62.520 69.188 C 72.206 68.817, 74.144 69.001, 75.569 70.426 C 76.490 71.347, 77.927 71.965, 78.764 71.800 C 80.869 71.385, 82.446 68.604, 81.691 66.636 C 81.005 64.851, 76.497 64.387, 75.500 66 M 186.500 76 C 186.105 76.640, 171.490 77, 145.941 77 L 106 77 106 93.500 L 106 110 110.500 110 L 115 110 115 146.500 C 115 171.682, 114.669 183, 113.934 183 C 113.347 183, 113.010 184.238, 113.184 185.750 C 113.600 189.367, 118.442 190.333, 119.497 187.010 C 119.864 185.852, 119.657 184.292, 119.036 183.544 C 118.242 182.587, 117.927 171.910, 117.974 147.596 C 118.010 128.573, 117.757 111.881, 117.412 110.504 C 116.876 108.369, 116.210 108, 112.892 108 L 109 108 109 93.500 L 109 79 146.535 79 C 178.464 79, 184.417 79.227, 186.394 80.523 C 190.037 82.910, 193.838 80.348, 192.362 76.500 C 191.716 74.819, 187.455 74.455, 186.500 76 M 173.500 85 C 173.112 85.628, 162.525 86, 145.048 86 C 113.495 86, 116 85.226, 116 94.975 C 116 99.351, 116.391 100.936, 117.582 101.393 C 120.230 102.409, 200.652 102.083, 203.383 101.045 C 207.612 99.437, 209.206 95.956, 208.274 90.362 C 207.563 86.096, 207.140 85.462, 204.818 85.192 C 202.850 84.963, 202 85.424, 201.503 86.990 C 200.769 89.303, 202.448 92, 204.622 92 C 206.321 92, 206.448 96.152, 204.800 97.800 C 203.904 98.696, 192.867 99, 161.300 99 L 119 99 119 94 L 119 89 145.941 89 C 162.823 89, 173.113 89.373, 173.500 90 C 174.412 91.476, 177.577 91.214, 178.960 89.548 C 180.782 87.353, 179.290 84, 176.492 84 C 175.186 84, 173.840 84.450, 173.500 85 M 58.208 93.750 L 58.500 101.500 75.500 101.500 L 92.500 101.500 92.792 93.750 L 93.084 86 75.500 86 L 57.916 86 58.208 93.750 M 26.238 90.162 C 24.490 91.910, 24.700 93.673, 26.838 95.193 C 27.849 95.912, 28.972 97.694, 29.333 99.154 C 30.558 104.104, 37.520 111.618, 43.669 114.627 C 48.948 117.209, 50.609 117.490, 62.726 117.844 L 76 118.232 76 129.057 C 76 135.195, 75.567 140.150, 75 140.500 C 73.530 141.409, 73.783 144.575, 75.436 145.947 C 78.623 148.592, 82.853 143.253, 79.906 140.306 C 79.305 139.705, 78.835 136.127, 78.862 132.356 C 78.889 128.585, 78.654 123.138, 78.340 120.250 L 77.770 115 64.135 114.978 C 52.595 114.959, 49.809 114.644, 46 112.921 C 37.201 108.943, 31.600 101.615, 31.537 94 C 31.506 90.268, 31.156 89.451, 29.488 89.212 C 28.382 89.053, 26.919 89.481, 26.238 90.162 M 60 93.974 L 60 99 75.555 99 L 91.110 99 90.805 94.250 L 90.500 89.500 75.250 89.224 L 60 88.948 60 93.974 M 123 152.077 L 123 196.154 125.944 199.098 C 128.583 201.737, 129.334 201.975, 133.194 201.398 C 138.599 200.590, 140.906 198.661, 139.374 196.231 C 137.732 193.629, 133.574 193.977, 133.180 196.750 C 132.824 199.258, 129.280 199.880, 127.200 197.800 C 126.304 196.904, 126 185.644, 126 153.300 L 126 110 131 110 L 136 110 136 143.014 C 136 167.587, 135.682 176.536, 134.757 178.017 C 133.244 180.441, 134.774 183.500, 137.500 183.500 C 140.226 183.500, 141.756 180.441, 140.243 178.017 C 139.319 176.538, 139 167.705, 139 143.595 C 139 125.758, 138.727 110.452, 138.393 109.582 C 137.915 108.337, 136.212 108, 130.393 108 L 123 108 123 152.077 M 153 124.383 C 153 133.710, 153.192 134.817, 154.883 135.259 C 156.543 135.693, 156.756 135.175, 156.691 130.867 C 156.651 128.180, 157.154 125.446, 157.809 124.791 C 158.464 124.136, 159 121.440, 159 118.800 C 159 114.133, 158.917 114, 156 114 L 153 114 153 124.383 M 98.347 122.490 C 100.215 124.357, 100.464 127.650, 99.025 131.435 C 98.138 133.768, 98.277 134, 100.572 134 C 103.032 134, 103.088 133.844, 102.798 127.750 C 102.508 121.676, 102.418 121.491, 99.597 121.169 C 96.898 120.861, 96.811 120.954, 98.347 122.490 M 89.986 125.517 C 88.857 126.877, 88.910 127.578, 90.323 129.970 C 91.735 132.359, 92 135.830, 92 151.904 L 92 171 87.059 171 C 84.341 171, 81.840 170.550, 81.500 170 C 80.591 168.530, 77.425 168.783, 76.053 170.436 C 75.168 171.502, 75.146 172.404, 75.966 173.936 C 77.248 176.331, 80.225 176.639, 81.954 174.556 C 82.748 173.599, 84.365 173.266, 86.741 173.571 C 94.262 174.533, 94 175.308, 94 152.133 C 94 138.565, 94.375 131.025, 95.085 130.315 C 95.681 129.719, 96.019 128.166, 95.835 126.865 C 95.428 123.993, 91.921 123.185, 89.986 125.517 M 97.667 138.667 C 96.620 139.714, 96.888 144, 98 144 C 98.632 144, 99 151.126, 99 163.377 L 99 182.753 88.885 182.928 C 80.744 183.068, 78.417 182.782, 76.960 181.463 C 74.350 179.102, 71.563 179.971, 71.183 183.264 C 70.810 186.499, 73.267 187.939, 76.119 186.158 C 77.244 185.455, 82.499 185, 89.486 185 L 101 185 101 164.500 C 101 153.137, 101.398 144, 101.893 144 C 103.157 144, 104.045 141.280, 103.362 139.500 C 102.783 137.991, 98.909 137.424, 97.667 138.667 M 176 139 C 176 139.603, 171.856 140, 165.569 140 L 155.137 140 154.819 168.750 C 154.512 196.429, 154.414 197.675, 152.192 202.186 C 147.986 210.723, 137.223 218.405, 133.086 215.822 C 130.612 214.276, 127.767 216.368, 128.202 219.412 C 128.563 221.943, 132.889 222.870, 134.444 220.750 C 135.025 219.959, 137.566 218.398, 140.091 217.282 C 146.255 214.558, 152.566 207.776, 155.006 201.255 C 156.814 196.423, 157 193.451, 157 169.462 L 157 143 166.417 143 C 172.662 143, 175.963 143.390, 176.219 144.158 C 176.463 144.889, 177.600 145.066, 179.303 144.639 C 182.181 143.916, 182.901 141.301, 180.800 139.200 C 179.347 137.747, 176 137.607, 176 139 M 160.336 150.567 C 160.005 151.430, 160.277 153.149, 160.940 154.388 C 161.805 156.004, 162.055 162.707, 161.823 178.071 C 161.510 198.827, 161.417 199.677, 158.852 205.148 C 146.183 232.169, 106.975 231.068, 96.407 203.395 C 95.123 200.034, 94.961 198.380, 95.747 196.657 C 97.808 192.132, 92.384 188.545, 90.057 192.893 C 89.297 194.314, 89.482 195.374, 90.799 197.143 C 91.765 198.439, 93.169 201.300, 93.919 203.500 C 96.809 211.976, 103.293 219.211, 112 223.678 C 117.004 226.246, 118.447 226.500, 128 226.500 C 138.061 226.500, 138.764 226.357, 144.821 223.073 C 151.871 219.251, 157.634 213.303, 161.155 206.216 C 163.368 201.763, 163.516 200.247, 163.820 179 C 164.084 160.604, 164.419 156.194, 165.661 154.822 C 167.838 152.417, 166.511 149, 163.401 149 C 162.046 149, 160.667 149.705, 160.336 150.567 M 84.500 178 C 84.138 178.585, 85.176 179, 87 179 C 88.824 179, 89.862 178.585, 89.500 178 C 89.160 177.450, 88.035 177, 87 177 C 85.965 177, 84.840 177.450, 84.500 178 M 98.710 190.232 C 99.834 191.474, 100.126 193.169, 99.742 196.232 C 99.173 200.777, 101.259 205.923, 104.043 206.844 C 105.268 207.248, 105.289 207.070, 104.177 205.722 C 103.449 204.841, 102.939 203.305, 103.042 202.310 C 103.146 201.314, 103.178 197.800, 103.115 194.500 C 103.001 188.559, 102.971 188.500, 100.071 188.500 C 97.357 188.500, 97.257 188.627, 98.710 190.232 M 108.518 210.945 C 109.628 211.395, 111.200 213.005, 112.012 214.522 C 112.867 216.119, 115.314 218.063, 117.827 219.140 C 123.601 221.615, 125 221.507, 125 218.588 C 125 216.530, 124.377 216.071, 120.757 215.459 C 118.424 215.065, 114.944 213.675, 113.025 212.371 C 111.106 211.067, 108.853 210.029, 108.018 210.063 C 107.014 210.105, 107.184 210.404, 108.518 210.945" stroke="none" fill="#0e0b06" fill-rule="evenodd"/></svg>